<svg width="256" height="256" viewBox="0 0 256 256" fill="none" xmlns="http://www.w3.org/2000/svg">
<path d="M127.98 6.2832C90.4784 6.2832 54.86 14.2507 22.6237 28.5581C10.5083 33.9554 3.14492 46.4636 4.42924 59.7C11.8355 135.349 51.6064 201.488 109.743 244.067C120.617 252.035 135.344 252.035 146.26 244.067C204.397 201.488 244.168 135.349 251.574 59.7C252.859 46.4636 245.495 33.9554 233.338 28.5581C201.143 14.2507 165.482 6.2832 127.98 6.2832Z" fill="#ED6C44"/>
<path d="M22.6217 28.5572L20.8845 24.643L20.879 24.6455L22.6217 28.5572ZM4.42721 59.6991L0.164885 60.1127L0.165246 60.1164L4.42721 59.6991ZM109.741 244.066L112.272 240.612H112.271L109.741 244.066ZM146.258 244.066L148.783 247.526L148.789 247.521L146.258 244.066ZM251.572 59.6991L255.834 60.1164L255.835 60.1127L251.572 59.6991ZM233.336 28.5572L231.596 32.4704L231.598 32.4712L233.336 28.5572ZM127.978 2C90.0061 2.0259 53.5154 10.1834 20.8845 24.643L24.3589 32.4714C56.2006 18.3164 90.9466 10.5388 127.978 10.5647V2ZM20.879 24.6455C7.09511 30.7862 -1.29885 45.0272 0.164885 60.1127L8.68953 59.2856C7.58464 47.8983 13.9175 37.123 24.3643 32.469L20.879 24.6455ZM0.165246 60.1164C7.69433 137.02 48.1257 204.247 107.211 247.521L112.271 240.612C55.083 198.727 15.9725 133.675 8.68917 59.282L0.165246 60.1164ZM107.21 247.52C119.594 256.594 136.365 256.589 148.783 247.526L143.734 240.608C134.319 247.479 121.636 247.474 112.272 240.612L107.21 247.52ZM148.789 247.521C207.874 204.247 248.305 137.02 255.834 60.1164L247.31 59.282C240.027 133.675 200.916 198.727 143.728 240.612L148.789 247.521ZM255.835 60.1127C257.299 45.0246 248.901 30.7823 235.072 24.6432L231.598 32.4712C242.084 37.1268 248.414 47.901 247.31 59.2856L255.835 60.1127ZM235.074 24.6439C202.485 10.1836 165.95 2.02585 127.978 2V10.5647C165.011 10.5388 199.798 18.3162 231.596 32.4704L235.074 24.6439Z" fill="white"/>
<path d="M58.3939 83.5598C58.5832 82.7978 58.7724 82.1502 59.0374 81.4645C59.2645 80.7786 59.5673 80.131 59.8701 79.5215C60.4756 78.2642 61.1569 77.0451 61.9518 75.8641C62.7088 74.6831 63.5793 73.5782 64.4877 72.4734C65.3961 71.3686 66.3045 70.34 67.2886 69.3113C68.2727 68.2827 69.2946 67.2922 70.3923 66.3779C70.6573 66.1493 70.9222 65.9207 71.225 65.6921L71.4142 65.5397L71.6413 65.3493L72.0198 65.0445C72.5497 64.6254 73.0417 64.2063 73.6095 63.7873C74.745 62.9491 75.8427 62.111 76.9782 61.349C77.5459 60.9681 78.1137 60.549 78.7193 60.168L79.5898 59.5966L80.4981 59.0632C81.7094 58.3393 82.9584 57.6917 84.2454 57.044C85.5322 56.4345 86.857 55.8249 88.1817 55.3678C89.5443 54.8725 90.9069 54.4534 92.3074 54.1105C93.7078 53.7677 95.1082 53.501 96.5465 53.3105L96.8114 53.2724L97.1143 53.2343L97.6063 53.1581C97.9469 53.12 98.2497 53.0819 98.6283 53.0438C99.3473 52.9676 100.067 52.9295 100.786 52.8914C102.186 52.8152 103.587 52.7771 104.987 52.8152C106.387 52.8533 107.75 52.8914 109.151 53.0057C109.832 53.0438 110.513 53.12 111.232 53.1962C111.951 53.2724 112.595 53.3486 113.352 53.4629C114.752 53.6534 115.774 54.9487 115.585 56.3964C115.471 57.3488 114.828 58.1489 113.957 58.4917H113.92C111.989 59.2537 110.021 60.0918 108.091 60.9681C106.16 61.8443 104.23 62.7586 102.337 63.711C98.5525 65.6159 94.8433 67.6732 91.361 69.959C89.6199 71.102 87.9168 72.3211 86.365 73.6163C85.9485 73.9211 85.6079 74.264 85.1916 74.6069C84.813 74.9498 84.4346 75.2927 84.0939 75.6355L83.564 76.1688L83.4505 76.2832L83.3748 76.3594C83.3748 76.3594 83.4126 76.3213 83.3748 76.3594L83.3369 76.3975L83.072 76.7022L81.9744 77.8833C81.5958 78.3023 81.2552 78.6833 80.9524 79.0643L79.9682 80.2453C79.3249 81.0454 78.6814 81.8453 78.0379 82.6835C77.4323 83.5216 76.7889 84.3598 76.259 85.2361L75.3885 86.5313L74.5936 87.8648C74.0258 88.7409 73.5716 89.6553 73.0417 90.5697C72.5497 91.484 72.0955 92.4365 71.6035 93.3507C70.733 95.2556 69.8624 97.1605 69.1433 99.1034L68.5755 100.589L68.0456 102.075C67.705 103.066 67.4022 104.056 67.0615 105.085C66.4559 107.104 65.8882 109.161 65.3583 111.218C65.0933 112.247 64.8662 113.276 64.6013 114.304L64.5256 114.647L64.4499 115.028L64.2985 115.828L63.9578 117.428C63.7686 118.457 63.5793 119.486 63.4279 120.514C63.2765 121.543 63.0873 122.571 63.0116 123.6C62.7845 125.657 62.6331 127.715 62.6709 129.734C62.6709 130.229 62.7088 130.724 62.7466 131.219C62.7845 131.715 62.8223 132.21 62.898 132.667C62.9737 133.124 63.0494 133.582 63.1251 134.039C63.163 134.267 63.2387 134.458 63.2765 134.648C63.3144 134.762 63.3144 134.839 63.3522 134.915C63.3522 134.953 63.3901 134.991 63.3901 134.991C63.3901 134.991 63.4279 135.067 63.3522 134.953L61.4219 133.62C61.8004 133.658 62.1032 133.734 62.406 133.772L63.3522 133.963C63.9578 134.077 64.5634 134.229 65.169 134.343C66.3802 134.61 67.5914 134.915 68.7647 135.258C71.1493 135.905 73.4959 136.667 75.8048 137.544C78.1137 138.382 80.4225 139.334 82.6556 140.363C83.7911 140.858 84.8887 141.43 85.9864 141.963C86.5541 142.268 87.0462 142.496 87.6139 142.801L89.2415 143.677C93.5563 146.039 97.7198 148.592 101.77 151.373C105.82 154.154 109.718 157.164 113.428 160.44C115.282 162.079 117.061 163.831 118.764 165.659C120.468 167.488 122.095 169.431 123.571 171.526C123.95 172.06 124.29 172.593 124.631 173.127L125.615 174.688L127.546 177.812C128.795 179.908 130.044 182.003 131.255 184.099C133.677 188.328 135.948 192.67 137.992 197.166C139.014 199.414 139.96 201.738 140.793 204.138C141.588 206.538 142.307 209.014 142.572 211.795L138.787 209.7C138.673 209.738 138.749 209.7 138.749 209.7L138.825 209.662L139.014 209.51C139.128 209.395 139.279 209.281 139.393 209.167C139.657 208.899 139.922 208.595 140.187 208.29C140.679 207.643 141.134 206.957 141.55 206.195C142.383 204.672 142.988 202.994 143.48 201.205C143.707 200.328 143.897 199.414 144.086 198.499C144.237 197.585 144.389 196.671 144.464 195.718C144.502 195.261 144.578 194.766 144.616 194.309C144.654 193.852 144.691 193.356 144.729 192.899L144.767 192.251V191.49V190.728C144.767 190.461 144.767 190.232 144.767 190.004V188.632C144.767 188.175 144.729 187.68 144.729 187.223C144.729 186.727 144.691 186.27 144.654 185.775C144.616 185.28 144.578 184.822 144.54 184.327C144.351 182.422 144.086 180.517 143.745 178.651C143.367 176.784 142.95 174.918 142.42 173.089C142.155 172.212 141.853 171.298 141.55 170.536L141.323 170.041L140.982 169.392L140.301 168.097C139.355 166.307 138.408 164.479 137.538 162.573C136.667 160.669 135.872 158.726 135.229 156.745C134.548 154.725 133.98 152.668 133.601 150.573L133.526 150.192V150.078L133.488 149.925L133.45 149.735L133.337 148.973L133.223 148.211L133.147 147.411C133.034 146.344 132.958 145.315 132.882 144.287C132.731 142.191 132.769 140.134 132.807 138.077C132.844 136.02 133.034 133.963 133.261 131.905C133.299 131.41 133.374 130.877 133.45 130.381C133.526 129.886 133.601 129.353 133.677 128.857L133.942 127.334L134.245 125.81C134.661 123.79 135.191 121.809 135.835 119.867C136.062 119.143 136.857 118.724 137.576 118.99C138.219 119.219 138.598 119.867 138.522 120.514C138.257 122.457 138.03 124.4 137.841 126.381C137.651 128.324 137.538 130.305 137.5 132.248C137.424 134.191 137.462 136.172 137.5 138.115C137.538 140.058 137.689 142.001 137.878 143.906C137.992 144.858 138.068 145.849 138.219 146.763L138.333 147.449L138.446 148.173L138.56 148.897L138.598 149.087V149.125C138.598 149.125 138.598 149.049 138.598 149.087V149.125V149.201L138.673 149.544C139.052 151.373 139.582 153.164 140.225 154.954C140.869 156.745 141.626 158.497 142.458 160.25C143.291 162.002 144.199 163.717 145.146 165.431L145.903 166.802L146.243 167.488L146.47 167.946C146.546 168.097 146.622 168.25 146.66 168.364C147.114 169.431 147.455 170.459 147.757 171.451C148.363 173.47 148.893 175.527 149.271 177.584C149.65 179.641 149.99 181.698 150.18 183.794C150.369 185.889 150.482 187.946 150.445 190.118C150.445 190.651 150.407 191.147 150.407 191.642L150.369 192.404V192.67V192.861L150.331 193.242C150.293 193.775 150.255 194.309 150.217 194.804C150.18 195.338 150.104 195.871 150.066 196.403C149.801 198.499 149.385 200.632 148.779 202.728C148.174 204.823 147.379 206.88 146.243 208.861C145.676 209.853 145.032 210.805 144.237 211.719C143.859 212.176 143.442 212.596 142.95 213.014C142.723 213.243 142.458 213.433 142.193 213.624C142.042 213.738 141.928 213.814 141.777 213.929L141.55 214.081C141.436 214.157 141.399 214.157 141.209 214.272C139.96 214.957 138.408 214.5 137.727 213.243C137.576 212.938 137.462 212.596 137.424 212.253V212.176C137.235 210.119 136.629 207.909 135.91 205.775C135.153 203.605 134.283 201.433 133.299 199.299C131.368 194.995 129.135 190.804 126.751 186.651C125.577 184.594 124.366 182.536 123.117 180.479L121.225 177.431L120.278 175.908C119.976 175.45 119.673 174.955 119.332 174.498C118.045 172.631 116.569 170.879 114.979 169.164C113.39 167.45 111.724 165.85 109.983 164.288C106.501 161.164 102.754 158.307 98.8553 155.602C94.9568 152.935 90.9447 150.459 86.7813 148.211L85.2294 147.373C84.6995 147.106 84.1318 146.801 83.6398 146.573C82.58 146.077 81.5579 145.544 80.4981 145.049C78.3786 144.058 76.2211 143.182 74.0258 142.382C71.8306 141.582 69.5975 140.858 67.3643 140.249C66.2288 139.944 65.1312 139.639 63.9957 139.41C63.4279 139.296 62.8602 139.144 62.2924 139.067L61.4597 138.915C61.1948 138.877 60.892 138.801 60.6649 138.801H60.5892C59.7565 138.687 59.0752 138.153 58.7346 137.467C58.621 137.239 58.5832 137.163 58.5453 137.048C58.5075 136.934 58.4696 136.858 58.4318 136.744C58.3561 136.553 58.3182 136.401 58.2425 136.21C58.129 135.867 58.0533 135.563 57.9776 135.258C57.8262 134.648 57.7126 134.001 57.6369 133.429C57.5234 132.82 57.5234 132.248 57.4477 131.639C57.4098 131.067 57.372 130.458 57.372 129.886C57.3341 127.562 57.4855 125.314 57.7505 123.067C57.864 121.924 58.0533 120.857 58.2047 119.752C58.3939 118.647 58.5832 117.504 58.8103 116.438L59.1509 114.838L59.3023 114.038L59.378 113.657L59.4916 113.199C59.7565 112.133 59.9836 111.066 60.2486 109.999C60.7785 107.866 61.384 105.732 62.0275 103.599C62.3681 102.532 62.6709 101.465 63.0494 100.437L63.5793 98.8749L64.1849 97.3129C64.9798 95.2175 65.8882 93.1984 66.8344 91.1411C67.3265 90.1506 67.8185 89.1219 68.3484 88.1314C68.9162 87.1409 69.4082 86.1503 70.0138 85.198L70.8843 83.7503L71.8306 82.3406C72.4361 81.3882 73.1175 80.512 73.7609 79.5976C74.4422 78.6833 75.1235 77.8452 75.8427 76.9308L76.9403 75.6355C77.3188 75.2165 77.6973 74.7593 78.0379 74.3783L79.1356 73.1973L79.4006 72.8925L79.5141 72.7782L79.5898 72.7021L79.7412 72.5496L80.3468 71.9401C80.7631 71.521 81.1795 71.1401 81.6336 70.7591C82.0878 70.3781 82.5043 69.9972 82.9584 69.6543C84.7374 68.2065 86.5541 66.9113 88.4088 65.6921C92.1181 63.2539 95.9788 61.1205 99.9151 59.1775C101.883 58.187 103.852 57.2726 105.858 56.3583C107.864 55.444 109.832 54.6058 111.914 53.7677L112.481 58.7965C111.914 58.7203 111.232 58.6822 110.627 58.6441C109.983 58.606 109.34 58.5679 108.696 58.5298C107.409 58.4917 106.122 58.4536 104.836 58.4536C103.549 58.4536 102.262 58.5298 101.013 58.606C100.369 58.6441 99.7638 58.7203 99.1582 58.7584C98.8553 58.7965 98.5147 58.8346 98.1741 58.8727L97.682 58.9489H97.5685H97.4928C97.4928 58.9489 97.5685 58.9489 97.5306 58.9489H97.4928L97.2656 58.987C96.66 59.1013 96.0545 59.1775 95.4489 59.3299C94.8433 59.4442 94.2377 59.5966 93.6321 59.7489C92.4208 60.0537 91.2475 60.4347 90.1121 60.8919C88.9387 61.3109 87.8032 61.8443 86.6677 62.3777C85.5322 62.9491 84.4346 63.5206 83.3369 64.1682L82.5043 64.6635L81.7094 65.1587C81.1795 65.5016 80.6117 65.8446 80.0818 66.1874C79.022 66.9113 77.9622 67.6351 76.9403 68.397C76.4483 68.778 75.8805 69.1971 75.3506 69.5781L74.9343 69.8828L74.5936 70.1495C74.3665 70.34 74.1015 70.5305 73.8745 70.721C72.8904 71.521 71.982 72.3591 71.0736 73.2354C70.1652 74.1116 69.2946 75.064 68.462 76.0165C67.6293 76.9689 66.8344 77.9595 66.0396 78.9881L63.6172 81.9978C63.2008 82.4931 62.7845 82.9883 62.3681 83.4835C61.9518 83.9788 61.5354 84.5121 61.1191 84.9693V85.0074C60.5135 85.6552 59.5294 85.6932 58.886 85.1218C58.4318 84.7027 58.2804 84.0932 58.3939 83.5598Z" fill="white"/>
<path d="M99.6304 128.167C99.7061 126.948 99.7818 125.69 99.8954 124.433C100.047 123.176 100.198 121.919 100.387 120.662C100.577 119.404 100.842 118.147 101.107 116.928C101.372 115.671 101.712 114.452 102.091 113.233C102.469 112.013 102.885 110.794 103.34 109.575C103.794 108.356 104.324 107.137 104.929 105.956L105.384 105.08L105.876 104.204L106.443 103.289L106.708 102.908L106.86 102.718L107.011 102.489L107.352 102.032L107.692 101.613C107.92 101.346 108.147 101.08 108.374 100.813C108.828 100.28 109.32 99.7842 109.85 99.289C111.894 97.3842 114.24 95.9365 116.625 94.7555C119.047 93.6126 121.508 92.7363 124.044 92.0506L124.498 91.9362L124.725 91.86L124.914 91.8219L125.028 91.7838C125.065 91.7838 125.255 91.7458 125.368 91.7077C125.52 91.6696 125.633 91.6696 125.747 91.6696C125.974 91.6315 126.239 91.6315 126.466 91.6315C127.412 91.5934 128.358 91.7839 129.267 92.1268C131.046 92.8125 132.56 94.1459 133.392 95.8603C133.62 96.2794 133.771 96.7365 133.884 97.1936L133.96 97.4984L133.998 97.727L134.112 98.1461C134.263 98.6794 134.414 99.2509 134.566 99.7842C134.906 100.889 135.285 101.956 135.739 102.946C135.966 103.442 136.193 103.975 136.458 104.47C136.572 104.737 136.723 104.966 136.875 105.194C136.95 105.308 137.026 105.423 137.102 105.537L137.215 105.727L137.253 105.804C137.253 105.766 137.291 105.88 137.215 105.766V105.804L137.253 105.842L137.518 106.223C137.556 106.299 137.594 106.337 137.632 106.375L137.707 106.489C137.821 106.642 138.01 106.832 138.124 107.023C138.464 107.404 138.805 107.747 139.146 108.09C140.622 109.423 142.552 110.375 144.596 110.909C145.618 111.175 146.64 111.366 147.7 111.442C148.722 111.518 149.744 111.442 150.576 111.252L150.841 111.175C150.955 111.137 151.144 111.099 151.258 111.099C151.485 111.061 151.75 111.023 151.977 111.023C152.469 110.985 152.923 111.023 153.377 111.061C153.831 111.099 154.285 111.213 154.702 111.328L155.61 111.594L159.13 112.661L162.65 113.728L163.104 113.842L163.407 113.918L163.634 113.995C163.672 113.995 163.672 113.995 163.748 114.033L163.937 114.109C164.051 114.147 164.202 114.223 164.316 114.261C164.543 114.376 164.732 114.452 164.959 114.604C165.792 115.061 166.511 115.709 167.079 116.433C167.684 117.157 168.139 118.033 168.403 118.947C168.555 119.481 168.593 119.747 168.668 120.014C168.744 120.243 168.782 120.509 168.858 120.776C169.16 121.805 169.539 122.757 170.031 123.633C170.523 124.509 171.091 125.233 171.772 125.805L171.848 125.843C171.924 125.881 171.772 125.805 171.81 125.805L171.848 125.843L172.037 125.995C172.075 126.033 172.075 126.033 172.188 126.071C172.34 126.148 172.491 126.224 172.643 126.3C172.983 126.452 173.4 126.567 173.816 126.643C174.686 126.795 175.709 126.795 176.73 126.643C177.222 126.567 177.715 126.49 178.207 126.338C178.434 126.262 178.699 126.186 178.85 126.148C178.926 126.109 179.039 126.071 179.077 126.071C179.115 126.033 179.153 126.033 179.077 126.071L178.774 126.3L180.364 124.814C180.44 124.738 180.553 124.662 180.667 124.586C181.84 123.786 183.127 123.252 184.641 123.024C185.398 122.947 186.231 122.909 187.291 123.214C186.988 123.138 187.215 123.214 187.177 123.176H187.215H187.253C187.291 123.176 187.291 123.176 187.253 123.176C187.215 123.176 187.177 123.138 187.139 123.138H187.253C187.291 123.138 187.328 123.138 187.366 123.138C187.556 123.138 187.745 123.138 187.972 123.138C188.388 123.138 188.842 123.1 189.259 123.062C189.675 123.024 190.091 122.947 190.394 122.871C190.432 122.871 190.546 122.833 190.546 122.833H190.583C190.546 122.833 190.546 122.833 190.508 122.871C190.508 122.871 190.318 122.985 190.432 122.909L190.508 122.871L190.659 122.757L190.81 122.643L190.848 122.605C190.886 122.567 191 122.49 191.075 122.376C191.151 122.262 191.265 122.186 191.34 122.033C191.719 121.576 192.022 120.852 192.325 120.014C192.476 119.595 192.627 119.138 192.779 118.642L193.006 117.919L193.119 117.538L193.195 117.233C193.233 117.004 193.309 116.623 193.309 116.242C193.347 115.861 193.309 115.48 193.309 115.061C193.233 114.261 193.082 113.423 192.817 112.585C192.552 111.747 192.249 110.947 191.833 110.109L191.681 109.804L191.605 109.652V109.613C191.681 109.766 191.605 109.613 191.643 109.652L191.605 109.575L191.416 109.232C191.34 109.118 191.265 109.004 191.227 108.928C191.113 108.775 191.038 108.661 190.924 108.509C190.81 108.356 190.697 108.166 190.546 108.013C189.486 106.68 188.048 105.499 186.42 104.165C186.004 103.823 185.587 103.48 185.133 103.061L184.792 102.756L184.452 102.375C184.376 102.299 184.338 102.261 184.263 102.184L184.149 102.032L183.884 101.727C183.241 100.965 182.521 100.089 181.878 99.3272L177.979 94.5268L162.65 75.4782L154.891 65.9157C153.604 64.3157 152.279 62.7537 150.993 61.1917L150.5 60.5821C150.273 60.3155 150.084 60.0869 149.895 59.7822C149.516 59.2107 149.1 58.5249 148.835 57.7249C148.759 57.5343 148.722 57.3058 148.646 57.1154L148.57 56.7344L148.419 56.0104C148.305 55.5534 148.192 55.0581 148.078 54.6009C147.586 52.696 146.98 50.8292 146.261 49.0768C145.883 48.2005 145.504 47.3243 145.088 46.4861C144.672 45.6481 144.18 44.8861 143.688 44.1242C142.628 42.6002 141.417 41.2287 140.054 40.0477C139.713 39.7429 139.373 39.4763 138.994 39.2096C138.805 39.0572 138.616 38.9429 138.426 38.8286L138.161 38.6381L137.934 38.4857L137.783 38.3714H137.745C137.707 38.3714 137.632 38.3333 137.594 38.2952C137.48 38.2571 137.367 38.2191 137.253 38.181C137.026 38.1048 136.799 38.1048 136.572 38.1048C136.118 38.1429 135.626 38.3333 135.285 38.6C135.209 38.6762 135.134 38.7524 135.058 38.8286C135.02 38.8667 134.982 38.9048 134.944 38.981L134.906 39.0191C134.906 39.0191 134.869 39.0572 134.906 39.0191L134.793 39.1715L134.641 39.4382L134.49 39.7049C134.376 39.8953 134.263 40.0858 134.187 40.2763C133.809 41.0382 133.468 41.8383 133.203 42.6764C133.09 43.0955 132.976 43.5145 132.863 43.9717L132.711 44.6956L132.56 45.4194C132.219 47.3624 131.916 49.3435 131.727 51.2864C131.689 51.7817 131.651 52.2388 131.614 52.7341L131.576 53.458V53.9151V54.1056L131.538 54.4485C131.5 54.6771 131.462 54.8675 131.424 55.0581C131.386 55.2485 131.349 55.439 131.273 55.6295C131.159 56.0104 131.008 56.3914 130.856 56.7344C130.516 57.4582 130.062 58.1058 129.532 58.7154C129.002 59.2869 128.358 59.7822 127.677 60.1631L126.39 60.9251C125.558 61.4203 124.687 61.9537 123.854 62.487C122.189 63.5538 120.561 64.6586 119.01 65.8777C117.458 67.0587 115.944 68.354 114.543 69.6494C113.862 70.3351 113.181 71.0208 112.537 71.7066C112.197 72.0494 111.932 72.4304 111.591 72.7733L110.645 73.9543C109.358 75.5163 108.147 77.0783 106.935 78.6784C105.762 80.2785 104.589 81.9166 103.491 83.5929C101.258 86.9074 99.1005 90.4123 96.7538 93.803C96.2618 94.5268 95.2777 94.6793 94.5585 94.184C93.9529 93.7649 93.7258 93.0029 93.9908 92.3172C95.4669 88.4313 97.208 84.6215 99.2519 80.9642C101.296 77.2688 103.756 73.7638 106.368 70.4874L106.86 69.8779L107.087 69.5731L107.2 69.4207L107.352 69.2684C107.73 68.8493 108.071 68.4302 108.449 68.0111C108.828 67.5921 109.206 67.2111 109.585 66.792C109.963 66.411 110.342 66.0301 110.758 65.6491C112.348 64.1633 114.013 62.7918 115.717 61.5346C117.42 60.2774 119.199 59.0582 120.978 57.9534C121.886 57.382 122.794 56.8486 123.703 56.3153L125.065 55.5534C125.255 55.439 125.444 55.2866 125.633 55.1343C125.785 54.9818 125.936 54.7533 126.012 54.5628C126.05 54.4485 126.087 54.3342 126.125 54.2199C126.125 54.1437 126.163 54.1056 126.163 54.0295C126.163 53.9532 126.201 53.9151 126.201 53.877C126.201 53.877 126.201 53.877 126.201 53.8389V53.6485V53.5342C126.201 53.458 126.201 53.6104 126.201 53.5723V53.5342V53.3436L126.239 52.5056C126.277 51.9722 126.314 51.4008 126.352 50.8674C126.542 48.6958 126.882 46.6004 127.261 44.5051L127.412 43.7432L127.564 42.9431C127.677 42.3717 127.829 41.8002 128.018 41.2287C128.358 40.0858 128.813 38.981 129.343 37.9143C129.494 37.6476 129.607 37.3809 129.759 37.1142L129.986 36.7333L130.213 36.3523L130.327 36.1999L130.516 35.9332C130.629 35.7808 130.743 35.6284 130.894 35.476C131.159 35.1713 131.424 34.9046 131.727 34.6379C132.938 33.6093 134.49 32.9997 136.08 32.8854C136.875 32.8473 137.669 32.8854 138.426 33.114C138.805 33.2283 139.183 33.3426 139.562 33.495C139.751 33.5712 139.903 33.6474 140.092 33.7617L140.395 33.9141L140.546 34.0283L140.773 34.1807L140.962 34.295L141.303 34.5236C141.53 34.676 141.757 34.8665 141.984 35.0189C142.438 35.3618 142.893 35.7046 143.309 36.0856C145.05 37.5714 146.564 39.2858 147.889 41.1525C148.532 42.105 149.138 43.0955 149.63 44.0861C150.122 45.0765 150.614 46.1052 151.03 47.0957C151.863 49.1149 152.544 51.2102 153.074 53.2675C153.226 53.8008 153.339 54.2961 153.453 54.8295L153.642 55.6295L153.718 56.0104C153.718 56.0485 153.756 56.0867 153.756 56.1248C153.793 56.2772 153.907 56.5057 154.096 56.7724C154.172 56.8867 154.323 57.0772 154.437 57.1915L154.929 57.763C156.292 59.3631 157.578 60.9631 158.903 62.5632L166.662 72.1637L182.105 91.3648L185.966 96.1269C186.609 96.927 187.215 97.6508 187.896 98.4509L188.161 98.7556L188.275 98.9081L188.35 98.9843L188.54 99.1747L188.767 99.4033C189.069 99.7081 189.448 100.013 189.826 100.318C191.34 101.575 193.157 102.984 194.671 104.889C194.86 105.118 195.05 105.385 195.239 105.613C195.428 105.842 195.618 106.185 195.807 106.451C195.92 106.604 195.958 106.718 196.034 106.832L196.223 107.175L196.261 107.251L196.337 107.366L196.374 107.404L196.488 107.594L196.677 107.975C197.169 109.004 197.624 110.109 197.964 111.252C198.305 112.394 198.532 113.575 198.645 114.833C198.683 115.442 198.721 116.09 198.683 116.738C198.645 117.385 198.57 118.033 198.38 118.795L198.267 119.252L198.153 119.633L197.926 120.395C197.775 120.89 197.624 121.424 197.396 121.995C197.018 123.1 196.526 124.281 195.618 125.462C195.39 125.767 195.163 126.033 194.898 126.3C194.633 126.567 194.368 126.833 193.99 127.1L193.725 127.291L193.574 127.405L193.422 127.519L193.347 127.557C193.422 127.519 193.195 127.633 193.195 127.671L193.082 127.71C192.93 127.786 192.817 127.862 192.665 127.9L192.362 128.014C192.135 128.091 191.984 128.129 191.795 128.205C191.075 128.395 190.508 128.472 189.902 128.548C189.297 128.624 188.729 128.662 188.123 128.662C187.82 128.662 187.518 128.662 187.177 128.662C187.101 128.662 187.026 128.662 186.912 128.662L186.609 128.624C186.458 128.624 186.269 128.586 186.117 128.548L186.004 128.51H185.966C185.89 128.472 186.117 128.548 185.739 128.472C185.777 128.472 185.587 128.433 185.322 128.472C184.792 128.548 184.149 128.776 183.619 129.157L183.922 128.929L182.332 130.415C182.256 130.491 182.143 130.567 182.029 130.643C181.727 130.872 181.462 130.986 181.235 131.1C181.007 131.215 180.818 131.291 180.629 131.367C180.25 131.519 179.91 131.596 179.531 131.71C178.812 131.9 178.093 132.053 177.374 132.129C175.936 132.319 174.497 132.357 172.945 132.091C172.188 131.977 171.394 131.748 170.599 131.443C170.22 131.291 169.804 131.062 169.425 130.834C169.236 130.719 169.009 130.567 168.782 130.415L168.593 130.262L168.555 130.224L168.479 130.148L168.441 130.11L168.328 129.995C167.117 128.967 166.17 127.71 165.451 126.414C164.694 125.119 164.202 123.786 163.786 122.452C163.672 122.109 163.597 121.766 163.521 121.424L163.407 120.966V120.928V120.852V120.814C163.407 120.776 163.407 120.738 163.369 120.7C163.294 120.433 163.142 120.166 162.991 119.976C162.802 119.747 162.575 119.557 162.347 119.404C162.272 119.366 162.234 119.328 162.158 119.29C162.12 119.29 162.12 119.29 162.12 119.252H162.083L162.007 119.214L161.78 119.138C161.704 119.1 161.855 119.176 161.818 119.138H161.78H161.742L161.628 119.1L161.174 118.985L157.654 117.919L154.134 116.852L153.264 116.585C153.112 116.547 152.961 116.509 152.809 116.471C152.658 116.433 152.507 116.433 152.355 116.471C152.279 116.471 152.204 116.471 152.166 116.509H152.128L151.939 116.547C150.387 116.928 148.911 116.966 147.51 116.89C146.072 116.814 144.709 116.547 143.347 116.204C140.66 115.442 138.048 114.185 135.815 112.242C135.247 111.747 134.755 111.213 134.263 110.68C134.036 110.375 133.809 110.109 133.544 109.766L133.355 109.499C133.279 109.423 133.241 109.347 133.203 109.271L132.938 108.89L132.825 108.737L132.749 108.623L132.598 108.242C132.522 108.09 132.408 107.937 132.333 107.785C132.181 107.48 131.992 107.175 131.841 106.87C131.538 106.261 131.235 105.651 130.97 105.042C130.44 103.823 129.948 102.565 129.57 101.27C129.38 100.622 129.191 100.013 129.04 99.3272L128.85 98.489C128.813 98.3366 128.775 98.2223 128.699 98.108C128.472 97.6127 128.018 97.1936 127.488 97.0032C127.223 96.8889 126.958 96.8508 126.655 96.8889C126.579 96.8889 126.504 96.8889 126.466 96.8889C126.428 96.8889 126.39 96.8889 126.39 96.8889C126.352 96.8889 126.39 96.8889 126.277 96.927L126.163 96.9651H126.125C126.239 96.927 126.163 96.9651 126.163 96.9651H126.125L125.898 97.0032L125.482 97.1174C123.249 97.727 121.091 98.5271 119.085 99.5557C117.079 100.584 115.225 101.803 113.673 103.251C113.294 103.632 112.916 103.975 112.575 104.394C112.386 104.585 112.234 104.775 112.083 105.004L111.856 105.308L111.629 105.575L111.515 105.727C111.477 105.766 111.44 105.842 111.402 105.918L111.137 106.299L110.72 106.947L110.304 107.67L109.888 108.432C108.79 110.451 107.882 112.623 107.049 114.833C106.633 115.938 106.216 117.08 105.838 118.223C105.459 119.366 105.081 120.509 104.702 121.652L103.605 125.157C103.226 126.338 102.885 127.481 102.431 128.7C102.166 129.424 101.372 129.805 100.652 129.538C99.9711 129.348 99.6304 128.776 99.6304 128.167Z" fill="white"/>
<path fill-rule="evenodd" clip-rule="evenodd" d="M157.014 86.99C155.989 86.8363 154.682 86.3094 153.588 85.5575C152.503 84.792 151.563 83.7537 151.075 82.8536C150.591 81.9407 150.259 80.6322 151.04 79.546C151.821 78.4599 153.185 78.3326 154.221 78.4777C155.246 78.6314 156.553 79.1583 157.648 79.9102C158.732 80.6757 159.672 81.714 160.16 82.6141C160.644 83.527 160.976 84.8355 160.195 85.9217C159.414 87.0078 158.05 87.135 157.014 86.99Z" fill="white"/>
</svg>
